<svg width="341" height="432" viewBox="0 0 341 432" fill="none" xmlns="http://www.w3.org/2000/svg">
<rect width="341" height="432" fill="#262626"/>
<rect x="167" y="184" width="174" height="208" fill="#3F3F3F"/>
<rect x="167" y="392" width="174" height="40" fill="#2D973D"/>
<rect y="392" width="167" height="40" fill="#FF3B30"/>
<rect y="184" width="167" height="208" fill="#171717"/>
<path d="M0.884943 14V3.81818H4.96165C5.7107 3.81818 6.33546 3.92921 6.83594 4.15128C7.33641 4.37334 7.7126 4.68158 7.96449 5.07599C8.21638 5.46709 8.34233 5.91785 8.34233 6.42827C8.34233 6.82599 8.26278 7.17566 8.10369 7.47727C7.9446 7.77557 7.72585 8.02083 7.44744 8.21307C7.17235 8.40199 6.85748 8.53622 6.50284 8.61577V8.7152C6.89063 8.73177 7.25355 8.84115 7.59162 9.04332C7.933 9.2455 8.20975 9.52888 8.42188 9.89347C8.634 10.2547 8.74006 10.6856 8.74006 11.1861C8.74006 11.7263 8.60582 12.2086 8.33736 12.6328C8.07221 13.0537 7.67945 13.3868 7.15909 13.6321C6.63873 13.8774 5.9974 14 5.23509 14H0.884943ZM3.03764 12.2401H4.79261C5.39252 12.2401 5.83002 12.1257 6.10511 11.897C6.38021 11.665 6.51776 11.3568 6.51776 10.9723C6.51776 10.6906 6.44981 10.442 6.31392 10.2266C6.17803 10.0111 5.98414 9.84209 5.73224 9.71946C5.48366 9.59683 5.18703 9.53551 4.84233 9.53551H3.03764V12.2401ZM3.03764 8.07884H4.63352C4.9285 8.07884 5.19034 8.02746 5.41903 7.92472C5.65104 7.81866 5.83333 7.66951 5.96591 7.47727C6.1018 7.28504 6.16974 7.05469 6.16974 6.78622C6.16974 6.41832 6.03883 6.12169 5.77699 5.89631C5.51847 5.67093 5.15057 5.55824 4.6733 5.55824H3.03764V8.07884ZM12.2786 14.1442C11.7914 14.1442 11.3572 14.0597 10.976 13.8906C10.5949 13.7183 10.2933 13.4647 10.0712 13.13C9.85245 12.7919 9.74308 12.371 9.74308 11.8672C9.74308 11.4429 9.82096 11.0866 9.97674 10.7983C10.1325 10.5099 10.3446 10.2779 10.6131 10.1023C10.8816 9.92661 11.1865 9.79403 11.5279 9.70455C11.8726 9.61506 12.2338 9.55208 12.6117 9.51562C13.0558 9.46922 13.4138 9.42614 13.6855 9.38636C13.9573 9.34328 14.1545 9.2803 14.2772 9.19744C14.3998 9.11458 14.4611 8.99195 14.4611 8.82955V8.79972C14.4611 8.48485 14.3617 8.24124 14.1628 8.06889C13.9673 7.89654 13.6889 7.81037 13.3276 7.81037C12.9464 7.81037 12.6432 7.89489 12.4178 8.06392C12.1924 8.22964 12.0433 8.43845 11.9703 8.69034L10.0115 8.53125C10.111 8.06723 10.3065 7.66619 10.5982 7.32812C10.8899 6.98674 11.266 6.7249 11.7267 6.54261C12.1908 6.35701 12.7277 6.2642 13.3375 6.2642C13.7618 6.2642 14.1678 6.31392 14.5556 6.41335C14.9467 6.51278 15.293 6.6669 15.5946 6.87571C15.8996 7.08452 16.1399 7.35298 16.3155 7.68111C16.4912 8.00592 16.579 8.39536 16.579 8.84943V14H14.5705V12.9411H14.5108C14.3882 13.1797 14.2241 13.3902 14.0186 13.5724C13.8132 13.7514 13.5662 13.8923 13.2779 13.995C12.9895 14.0945 12.6564 14.1442 12.2786 14.1442ZM12.8851 12.6825C13.1967 12.6825 13.4718 12.6212 13.7104 12.4986C13.949 12.3726 14.1363 12.2036 14.2722 11.9915C14.4081 11.7794 14.476 11.5391 14.476 11.2706V10.4602C14.4097 10.5033 14.3186 10.5431 14.2026 10.5795C14.0899 10.6127 13.9623 10.6442 13.8198 10.674C13.6773 10.7005 13.5347 10.7254 13.3922 10.7486C13.2497 10.7685 13.1204 10.7867 13.0044 10.8033C12.7559 10.8397 12.5388 10.8977 12.3532 10.9773C12.1676 11.0568 12.0234 11.1645 11.9206 11.3004C11.8179 11.433 11.7665 11.5987 11.7665 11.7976C11.7665 12.0859 11.8709 12.3063 12.0797 12.4588C12.2918 12.608 12.5603 12.6825 12.8851 12.6825ZM21.6724 14.1491C20.8902 14.1491 20.2174 13.9834 19.6539 13.652C19.0938 13.3172 18.6629 12.8532 18.3613 12.2599C18.063 11.6667 17.9139 10.9839 17.9139 10.2116C17.9139 9.42945 18.0647 8.74337 18.3663 8.15341C18.6712 7.56013 19.1038 7.09777 19.6639 6.76633C20.224 6.43158 20.8902 6.2642 21.6625 6.2642C22.3287 6.2642 22.912 6.38518 23.4125 6.62713C23.9129 6.86908 24.309 7.20881 24.6007 7.64631C24.8923 8.08381 25.0531 8.59754 25.0829 9.1875H23.0843C23.028 8.80634 22.8788 8.49976 22.6369 8.26776C22.3983 8.03243 22.085 7.91477 21.6973 7.91477C21.3691 7.91477 21.0824 8.00426 20.8372 8.18324C20.5952 8.3589 20.4063 8.61577 20.2704 8.95384C20.1345 9.2919 20.0666 9.70123 20.0666 10.1818C20.0666 10.669 20.1329 11.0833 20.2654 11.4247C20.4013 11.7661 20.5919 12.0263 20.8372 12.2053C21.0824 12.3842 21.3691 12.4737 21.6973 12.4737C21.9392 12.4737 22.1563 12.424 22.3485 12.3246C22.5441 12.2251 22.7048 12.081 22.8308 11.892C22.96 11.6998 23.0446 11.4695 23.0843 11.201H25.0829C25.0498 11.7843 24.8907 12.2981 24.6056 12.7422C24.3239 13.183 23.9345 13.5277 23.4373 13.7763C22.9402 14.0249 22.3519 14.1491 21.6724 14.1491ZM28.358 11.8026L28.3629 9.26207H28.6712L31.1172 6.36364H33.5483L30.2621 10.2017H29.7599L28.358 11.8026ZM26.4389 14V3.81818H28.5568V14H26.4389ZM31.2116 14L28.9645 10.674L30.3764 9.17756L33.6925 14H31.2116ZM37.7132 17.0227C37.0272 17.0227 36.4389 16.9283 35.9483 16.7393C35.4611 16.5537 35.0733 16.3002 34.785 15.9787C34.4966 15.6572 34.3094 15.2959 34.2232 14.8949L36.182 14.6314C36.2417 14.7839 36.3361 14.9264 36.4654 15.0589C36.5946 15.1915 36.7653 15.2976 36.9775 15.3771C37.1929 15.46 37.4547 15.5014 37.763 15.5014C38.2237 15.5014 38.6032 15.3887 38.9015 15.1634C39.2031 14.9413 39.3539 14.5684 39.3539 14.0447V12.6477H39.2644C39.1716 12.8598 39.0324 13.0604 38.8468 13.2493C38.6612 13.4382 38.4225 13.5923 38.1309 13.7116C37.8392 13.831 37.4912 13.8906 37.0868 13.8906C36.5134 13.8906 35.9914 13.758 35.5208 13.4929C35.0534 13.2244 34.6806 12.8151 34.4022 12.2649C34.1271 11.7114 33.9895 11.0121 33.9895 10.1669C33.9895 9.30185 34.1304 8.57931 34.4121 7.99929C34.6938 7.41927 35.0684 6.98509 35.5357 6.69673C36.0063 6.40838 36.5217 6.2642 37.0819 6.2642C37.5094 6.2642 37.8674 6.33712 38.1557 6.48295C38.4441 6.62547 38.6761 6.80445 38.8517 7.01989C39.0307 7.23201 39.1683 7.44081 39.2644 7.64631H39.3439V6.36364H41.4469V14.0746C41.4469 14.7242 41.2878 15.2678 40.9696 15.7053C40.6515 16.1428 40.2106 16.4709 39.6472 16.6896C39.0871 16.9117 38.4424 17.0227 37.7132 17.0227ZM37.758 12.2997C38.0994 12.2997 38.3877 12.2152 38.623 12.0462C38.8617 11.8738 39.044 11.6286 39.1699 11.3104C39.2992 10.9889 39.3638 10.6044 39.3638 10.157C39.3638 9.70952 39.3008 9.32173 39.1749 8.99361C39.0489 8.66217 38.8667 8.4053 38.628 8.22301C38.3894 8.04072 38.0994 7.94957 37.758 7.94957C37.41 7.94957 37.1167 8.04403 36.878 8.23295C36.6394 8.41856 36.4587 8.67708 36.3361 9.00852C36.2135 9.33996 36.1522 9.72277 36.1522 10.157C36.1522 10.5978 36.2135 10.9789 36.3361 11.3004C36.4621 11.6186 36.6427 11.8655 36.878 12.0412C37.1167 12.2135 37.41 12.2997 37.758 12.2997ZM43.1323 14V6.36364H45.1855V7.69602H45.2651C45.4043 7.22206 45.638 6.86411 45.9661 6.62216C46.2942 6.37689 46.6721 6.25426 47.0996 6.25426C47.2057 6.25426 47.32 6.26089 47.4426 6.27415C47.5653 6.28741 47.673 6.30563 47.7658 6.32883V8.2081C47.6664 8.17827 47.5288 8.15175 47.3532 8.12855C47.1775 8.10535 47.0167 8.09375 46.8709 8.09375C46.5594 8.09375 46.281 8.1617 46.0357 8.29759C45.7937 8.43016 45.6015 8.61577 45.459 8.8544C45.3198 9.09304 45.2502 9.36813 45.2502 9.67969V14H43.1323ZM51.9556 14.1491C51.1834 14.1491 50.5155 13.9851 49.9521 13.657C49.3919 13.3255 48.9594 12.8648 48.6545 12.2749C48.3496 11.6816 48.1971 10.9938 48.1971 10.2116C48.1971 9.42282 48.3496 8.73343 48.6545 8.14347C48.9594 7.55019 49.3919 7.08949 49.9521 6.76136C50.5155 6.42992 51.1834 6.2642 51.9556 6.2642C52.7279 6.2642 53.3941 6.42992 53.9542 6.76136C54.5176 7.08949 54.9518 7.55019 55.2567 8.14347C55.5617 8.73343 55.7141 9.42282 55.7141 10.2116C55.7141 10.9938 55.5617 11.6816 55.2567 12.2749C54.9518 12.8648 54.5176 13.3255 53.9542 13.657C53.3941 13.9851 52.7279 14.1491 51.9556 14.1491ZM51.9656 12.5085C52.3169 12.5085 52.6102 12.4091 52.8455 12.2102C53.0808 12.008 53.2582 11.733 53.3775 11.3849C53.5001 11.0369 53.5614 10.6409 53.5614 10.1967C53.5614 9.7526 53.5001 9.35653 53.3775 9.00852C53.2582 8.66051 53.0808 8.38542 52.8455 8.18324C52.6102 7.98106 52.3169 7.87997 51.9656 7.87997C51.6109 7.87997 51.3126 7.98106 51.0707 8.18324C50.832 8.38542 50.6514 8.66051 50.5288 9.00852C50.4094 9.35653 50.3498 9.7526 50.3498 10.1967C50.3498 10.6409 50.4094 11.0369 50.5288 11.3849C50.6514 11.733 50.832 12.008 51.0707 12.2102C51.3126 12.4091 51.6109 12.5085 51.9656 12.5085ZM61.9883 10.7486V6.36364H64.1062V14H62.0728V12.6129H61.9933C61.8209 13.0604 61.5342 13.42 61.1332 13.6918C60.7354 13.9635 60.2499 14.0994 59.6765 14.0994C59.1661 14.0994 58.717 13.9834 58.3292 13.7514C57.9414 13.5194 57.6381 13.1896 57.4194 12.7621C57.204 12.3345 57.0946 11.8224 57.0913 11.2259V6.36364H59.2092V10.848C59.2125 11.2988 59.3335 11.6551 59.5721 11.9169C59.8107 12.1787 60.1306 12.3097 60.5316 12.3097C60.7868 12.3097 61.0255 12.2517 61.2475 12.1357C61.4696 12.0163 61.6486 11.8407 61.7844 11.6087C61.9237 11.3767 61.9916 11.09 61.9883 10.7486ZM67.9181 9.58523V14H65.8002V6.36364H67.8187V7.71094H67.9082C68.0772 7.26681 68.3606 6.91548 68.7583 6.65696C69.1561 6.39512 69.6383 6.2642 70.2051 6.2642C70.7354 6.2642 71.1977 6.38021 71.5922 6.61222C71.9866 6.84422 72.2931 7.17566 72.5119 7.60653C72.7306 8.03409 72.84 8.54451 72.84 9.13778V14H70.7221V9.51562C70.7254 9.0483 70.6061 8.68371 70.3642 8.42188C70.1222 8.15672 69.7891 8.02415 69.3649 8.02415C69.0798 8.02415 68.8279 8.08546 68.6092 8.2081C68.3938 8.33073 68.2247 8.50971 68.1021 8.74503C67.9828 8.97704 67.9215 9.2571 67.9181 9.58523ZM77.3232 14.1243C76.7431 14.1243 76.2178 13.9751 75.7472 13.6768C75.2798 13.3752 74.9086 12.9328 74.6335 12.3494C74.3617 11.7628 74.2259 11.0436 74.2259 10.1918C74.2259 9.31676 74.3667 8.58925 74.6484 8.00923C74.9302 7.4259 75.3047 6.99006 75.772 6.7017C76.2427 6.41004 76.758 6.2642 77.3182 6.2642C77.7457 6.2642 78.102 6.33712 78.3871 6.48295C78.6754 6.62547 78.9074 6.80445 79.0831 7.01989C79.2621 7.23201 79.398 7.44081 79.4908 7.64631H79.5554V3.81818H81.6683V14H79.5803V12.777H79.4908C79.3913 12.9891 79.2505 13.1996 79.0682 13.4084C78.8892 13.6139 78.6555 13.7846 78.3672 13.9205C78.0821 14.0563 77.7341 14.1243 77.3232 14.1243ZM77.9943 12.4389C78.3357 12.4389 78.6241 12.3461 78.8594 12.1605C79.098 11.9716 79.2803 11.7081 79.4062 11.37C79.5355 11.032 79.6001 10.6359 79.6001 10.1818C79.6001 9.72775 79.5372 9.33333 79.4112 8.99858C79.2853 8.66383 79.103 8.4053 78.8643 8.22301C78.6257 8.04072 78.3357 7.94957 77.9943 7.94957C77.6463 7.94957 77.353 8.04403 77.1143 8.23295C76.8757 8.42187 76.6951 8.68371 76.5724 9.01847C76.4498 9.35322 76.3885 9.741 76.3885 10.1818C76.3885 10.6259 76.4498 11.0187 76.5724 11.3601C76.6984 11.6982 76.879 11.9633 77.1143 12.1555C77.353 12.3445 77.6463 12.4389 77.9943 12.4389Z" fill="#B8B8B8"/>
<path d="M4.49432 198H0.884943V187.818H4.52415C5.5483 187.818 6.42992 188.022 7.16903 188.43C7.90814 188.834 8.47656 189.416 8.87429 190.175C9.27533 190.934 9.47585 191.842 9.47585 192.899C9.47585 193.96 9.27533 194.871 8.87429 195.634C8.47656 196.396 7.90483 196.981 7.15909 197.388C6.41667 197.796 5.52841 198 4.49432 198ZM3.03764 196.156H4.40483C5.04119 196.156 5.57647 196.043 6.01065 195.817C6.44815 195.589 6.77628 195.236 6.99503 194.759C7.21709 194.278 7.32812 193.658 7.32812 192.899C7.32812 192.147 7.21709 191.532 6.99503 191.055C6.77628 190.577 6.44981 190.226 6.01562 190.001C5.58144 189.775 5.04616 189.663 4.4098 189.663H3.03764V196.156ZM13.2083 198.144C12.7211 198.144 12.2869 198.06 11.9057 197.891C11.5246 197.718 11.223 197.465 11.0009 197.13C10.7821 196.792 10.6728 196.371 10.6728 195.867C10.6728 195.443 10.7507 195.087 10.9064 194.798C11.0622 194.51 11.2743 194.278 11.5428 194.102C11.8113 193.927 12.1162 193.794 12.4576 193.705C12.8023 193.615 13.1635 193.552 13.5414 193.516C13.9855 193.469 14.3435 193.426 14.6152 193.386C14.887 193.343 15.0842 193.28 15.2069 193.197C15.3295 193.115 15.3908 192.992 15.3908 192.83V192.8C15.3908 192.485 15.2914 192.241 15.0925 192.069C14.897 191.897 14.6185 191.81 14.2573 191.81C13.8761 191.81 13.5729 191.895 13.3475 192.064C13.1221 192.23 12.973 192.438 12.9 192.69L10.9412 192.531C11.0407 192.067 11.2362 191.666 11.5279 191.328C11.8195 190.987 12.1957 190.725 12.6564 190.543C13.1204 190.357 13.6574 190.264 14.2672 190.264C14.6915 190.264 15.0975 190.314 15.4853 190.413C15.8764 190.513 16.2227 190.667 16.5243 190.876C16.8292 191.085 17.0695 191.353 17.2452 191.681C17.4209 192.006 17.5087 192.395 17.5087 192.849V198H15.5002V196.941H15.4405C15.3179 197.18 15.1538 197.39 14.9483 197.572C14.7428 197.751 14.4959 197.892 14.2076 197.995C13.9192 198.094 13.5861 198.144 13.2083 198.144ZM13.8148 196.683C14.1264 196.683 14.4015 196.621 14.6401 196.499C14.8787 196.373 15.066 196.204 15.2019 195.991C15.3378 195.779 15.4057 195.539 15.4057 195.271V194.46C15.3394 194.503 15.2483 194.543 15.1323 194.58C15.0196 194.613 14.892 194.644 14.7495 194.674C14.6069 194.701 14.4644 194.725 14.3219 194.749C14.1794 194.768 14.0501 194.787 13.9341 194.803C13.6855 194.84 13.4685 194.898 13.2828 194.977C13.0972 195.057 12.9531 195.165 12.8503 195.3C12.7476 195.433 12.6962 195.599 12.6962 195.798C12.6962 196.086 12.8006 196.306 13.0094 196.459C13.2215 196.608 13.49 196.683 13.8148 196.683ZM19.1518 198V190.364H21.2051V191.696H21.2846C21.4238 191.222 21.6575 190.864 21.9856 190.622C22.3137 190.377 22.6916 190.254 23.1191 190.254C23.2252 190.254 23.3395 190.261 23.4622 190.274C23.5848 190.287 23.6925 190.306 23.7853 190.329V192.208C23.6859 192.178 23.5484 192.152 23.3727 192.129C23.197 192.105 23.0363 192.094 22.8904 192.094C22.5789 192.094 22.3005 192.162 22.0552 192.298C21.8133 192.43 21.621 192.616 21.4785 192.854C21.3393 193.093 21.2697 193.368 21.2697 193.68V198H19.1518ZM26.7994 195.803L26.8043 193.262H27.1126L29.5586 190.364H31.9897L28.7035 194.202H28.2013L26.7994 195.803ZM24.8803 198V187.818H26.9982V198H24.8803ZM29.6531 198L27.4059 194.674L28.8178 193.178L32.1339 198H29.6531ZM36.1547 201.023C35.4686 201.023 34.8803 200.928 34.3897 200.739C33.9025 200.554 33.5147 200.3 33.2264 199.979C32.938 199.657 32.7508 199.296 32.6646 198.895L34.6234 198.631C34.6831 198.784 34.7775 198.926 34.9068 199.059C35.036 199.192 35.2067 199.298 35.4189 199.377C35.6343 199.46 35.8961 199.501 36.2044 199.501C36.6651 199.501 37.0446 199.389 37.3429 199.163C37.6445 198.941 37.7953 198.568 37.7953 198.045V196.648H37.7058C37.613 196.86 37.4738 197.06 37.2882 197.249C37.1026 197.438 36.8639 197.592 36.5723 197.712C36.2806 197.831 35.9326 197.891 35.5282 197.891C34.9548 197.891 34.4328 197.758 33.9622 197.493C33.4949 197.224 33.122 196.815 32.8436 196.265C32.5685 195.711 32.4309 195.012 32.4309 194.167C32.4309 193.302 32.5718 192.579 32.8535 191.999C33.1352 191.419 33.5098 190.985 33.9771 190.697C34.4477 190.408 34.9631 190.264 35.5233 190.264C35.9508 190.264 36.3088 190.337 36.5971 190.483C36.8855 190.625 37.1175 190.804 37.2931 191.02C37.4721 191.232 37.6097 191.441 37.7058 191.646H37.7853V190.364H39.8883V198.075C39.8883 198.724 39.7292 199.268 39.411 199.705C39.0929 200.143 38.652 200.471 38.0886 200.69C37.5285 200.912 36.8838 201.023 36.1547 201.023ZM36.1994 196.3C36.5408 196.3 36.8291 196.215 37.0645 196.046C37.3031 195.874 37.4854 195.629 37.6113 195.31C37.7406 194.989 37.8052 194.604 37.8052 194.157C37.8052 193.71 37.7422 193.322 37.6163 192.994C37.4904 192.662 37.3081 192.405 37.0694 192.223C36.8308 192.041 36.5408 191.95 36.1994 191.95C35.8514 191.95 35.5581 192.044 35.3194 192.233C35.0808 192.419 34.9002 192.677 34.7775 193.009C34.6549 193.34 34.5936 193.723 34.5936 194.157C34.5936 194.598 34.6549 194.979 34.7775 195.3C34.9035 195.619 35.0841 195.866 35.3194 196.041C35.5581 196.214 35.8514 196.3 36.1994 196.3ZM41.5737 198V190.364H43.627V191.696H43.7065C43.8457 191.222 44.0794 190.864 44.4075 190.622C44.7356 190.377 45.1135 190.254 45.541 190.254C45.6471 190.254 45.7614 190.261 45.8841 190.274C46.0067 190.287 46.1144 190.306 46.2072 190.329V192.208C46.1078 192.178 45.9702 192.152 45.7946 192.129C45.6189 192.105 45.4582 192.094 45.3123 192.094C45.0008 192.094 44.7224 192.162 44.4771 192.298C44.2351 192.43 44.0429 192.616 43.9004 192.854C43.7612 193.093 43.6916 193.368 43.6916 193.68V198H41.5737ZM50.4268 198.149C49.6413 198.149 48.9652 197.99 48.3984 197.672C47.835 197.35 47.4008 196.896 47.0959 196.31C46.791 195.72 46.6385 195.022 46.6385 194.217C46.6385 193.431 46.791 192.742 47.0959 192.148C47.4008 191.555 47.83 191.093 48.3835 190.761C48.9403 190.43 49.5933 190.264 50.3423 190.264C50.8461 190.264 51.3151 190.345 51.7493 190.508C52.1868 190.667 52.5679 190.907 52.8928 191.229C53.2209 191.55 53.4761 191.955 53.6584 192.442C53.8407 192.926 53.9318 193.492 53.9318 194.142V194.724H47.4837V193.411H51.9382C51.9382 193.106 51.8719 192.836 51.7393 192.601C51.6068 192.366 51.4228 192.182 51.1875 192.049C50.9555 191.913 50.6854 191.845 50.3771 191.845C50.0556 191.845 49.7706 191.92 49.522 192.069C49.2768 192.215 49.0845 192.412 48.9453 192.661C48.8061 192.906 48.7348 193.179 48.7315 193.481V194.729C48.7315 195.107 48.8011 195.433 48.9403 195.708C49.0829 195.983 49.2834 196.195 49.5419 196.344C49.8004 196.494 50.107 196.568 50.4616 196.568C50.697 196.568 50.9124 196.535 51.108 196.469C51.3035 196.402 51.4709 196.303 51.6101 196.17C51.7493 196.038 51.8554 195.875 51.9283 195.683L53.8871 195.812C53.7876 196.283 53.5838 196.694 53.2756 197.045C52.9706 197.393 52.5762 197.665 52.0923 197.861C51.6117 198.053 51.0566 198.149 50.4268 198.149ZM56.4164 200.864C56.1479 200.864 55.896 200.842 55.6607 200.799C55.4287 200.759 55.2364 200.708 55.084 200.645L55.5613 199.064C55.8098 199.14 56.0336 199.182 56.2324 199.188C56.4346 199.195 56.6086 199.148 56.7544 199.049C56.9036 198.95 57.0246 198.781 57.1174 198.542L57.2417 198.219L54.5023 190.364H56.7296L58.3105 195.972H58.3901L59.986 190.364H62.2282L59.2601 198.825C59.1176 199.236 58.9237 199.594 58.6784 199.899C58.4365 200.207 58.1299 200.444 57.7587 200.61C57.3875 200.779 56.94 200.864 56.4164 200.864Z" fill="#B8B8B8"/>
<path d="M170.885 198V187.818H173.038V196.225H177.403V198H170.885ZM178.789 198V190.364H180.906V198H178.789ZM179.852 189.379C179.538 189.379 179.267 189.275 179.042 189.066C178.82 188.854 178.709 188.6 178.709 188.305C178.709 188.014 178.82 187.763 179.042 187.555C179.267 187.343 179.538 187.237 179.852 187.237C180.167 187.237 180.436 187.343 180.658 187.555C180.883 187.763 180.996 188.014 180.996 188.305C180.996 188.6 180.883 188.854 180.658 189.066C180.436 189.275 180.167 189.379 179.852 189.379ZM186.043 201.023C185.357 201.023 184.769 200.928 184.278 200.739C183.791 200.554 183.403 200.3 183.115 199.979C182.827 199.657 182.639 199.296 182.553 198.895L184.512 198.631C184.572 198.784 184.666 198.926 184.795 199.059C184.925 199.192 185.095 199.298 185.308 199.377C185.523 199.46 185.785 199.501 186.093 199.501C186.554 199.501 186.933 199.389 187.232 199.163C187.533 198.941 187.684 198.568 187.684 198.045V196.648H187.594C187.502 196.86 187.362 197.06 187.177 197.249C186.991 197.438 186.753 197.592 186.461 197.712C186.169 197.831 185.821 197.891 185.417 197.891C184.844 197.891 184.321 197.758 183.851 197.493C183.384 197.224 183.011 196.815 182.732 196.265C182.457 195.711 182.32 195.012 182.32 194.167C182.32 193.302 182.46 192.579 182.742 191.999C183.024 191.419 183.398 190.985 183.866 190.697C184.336 190.408 184.852 190.264 185.412 190.264C185.839 190.264 186.197 190.337 186.486 190.483C186.774 190.625 187.006 190.804 187.182 191.02C187.361 191.232 187.498 191.441 187.594 191.646H187.674V190.364H189.777V198.075C189.777 198.724 189.618 199.268 189.3 199.705C188.982 200.143 188.541 200.471 187.977 200.69C187.417 200.912 186.772 201.023 186.043 201.023ZM186.088 196.3C186.429 196.3 186.718 196.215 186.953 196.046C187.192 195.874 187.374 195.629 187.5 195.31C187.629 194.989 187.694 194.604 187.694 194.157C187.694 193.71 187.631 193.322 187.505 192.994C187.379 192.662 187.197 192.405 186.958 192.223C186.719 192.041 186.429 191.95 186.088 191.95C185.74 191.95 185.447 192.044 185.208 192.233C184.969 192.419 184.789 192.677 184.666 193.009C184.544 193.34 184.482 193.723 184.482 194.157C184.482 194.598 184.544 194.979 184.666 195.3C184.792 195.619 184.973 195.866 185.208 196.041C185.447 196.214 185.74 196.3 186.088 196.3ZM193.58 193.585V198H191.462V187.818H193.521V191.711H193.61C193.782 191.26 194.061 190.907 194.445 190.652C194.83 190.393 195.312 190.264 195.892 190.264C196.422 190.264 196.885 190.38 197.279 190.612C197.677 190.841 197.985 191.171 198.204 191.602C198.426 192.029 198.535 192.541 198.532 193.138V198H196.414V193.516C196.417 193.045 196.298 192.679 196.056 192.417C195.817 192.155 195.483 192.024 195.052 192.024C194.763 192.024 194.508 192.085 194.286 192.208C194.067 192.331 193.895 192.51 193.769 192.745C193.647 192.977 193.584 193.257 193.58 193.585ZM204.26 190.364V191.955H199.662V190.364H204.26ZM200.706 188.534H202.824V195.653C202.824 195.849 202.854 196.001 202.913 196.111C202.973 196.217 203.056 196.291 203.162 196.335C203.271 196.378 203.397 196.399 203.54 196.399C203.639 196.399 203.738 196.391 203.838 196.374C203.937 196.354 204.014 196.339 204.067 196.33L204.4 197.906C204.294 197.939 204.144 197.977 203.952 198.02C203.76 198.066 203.526 198.094 203.251 198.104C202.741 198.124 202.293 198.056 201.909 197.901C201.528 197.745 201.231 197.503 201.019 197.175C200.807 196.847 200.702 196.432 200.706 195.932V188.534ZM208.998 201.023C208.312 201.023 207.724 200.928 207.233 200.739C206.746 200.554 206.358 200.3 206.07 199.979C205.782 199.657 205.595 199.296 205.508 198.895L207.467 198.631C207.527 198.784 207.621 198.926 207.751 199.059C207.88 199.192 208.05 199.298 208.263 199.377C208.478 199.46 208.74 199.501 209.048 199.501C209.509 199.501 209.888 199.389 210.187 199.163C210.488 198.941 210.639 198.568 210.639 198.045V196.648H210.55C210.457 196.86 210.318 197.06 210.132 197.249C209.946 197.438 209.708 197.592 209.416 197.712C209.124 197.831 208.776 197.891 208.372 197.891C207.799 197.891 207.277 197.758 206.806 197.493C206.339 197.224 205.966 196.815 205.687 196.265C205.412 195.711 205.275 195.012 205.275 194.167C205.275 193.302 205.416 192.579 205.697 191.999C205.979 191.419 206.354 190.985 206.821 190.697C207.291 190.408 207.807 190.264 208.367 190.264C208.795 190.264 209.153 190.337 209.441 190.483C209.729 190.625 209.961 190.804 210.137 191.02C210.316 191.232 210.453 191.441 210.55 191.646H210.629V190.364H212.732V198.075C212.732 198.724 212.573 199.268 212.255 199.705C211.937 200.143 211.496 200.471 210.932 200.69C210.372 200.912 209.728 201.023 208.998 201.023ZM209.043 196.3C209.385 196.3 209.673 196.215 209.908 196.046C210.147 195.874 210.329 195.629 210.455 195.31C210.584 194.989 210.649 194.604 210.649 194.157C210.649 193.71 210.586 193.322 210.46 192.994C210.334 192.662 210.152 192.405 209.913 192.223C209.675 192.041 209.385 191.95 209.043 191.95C208.695 191.95 208.402 192.044 208.163 192.233C207.925 192.419 207.744 192.677 207.621 193.009C207.499 193.34 207.437 193.723 207.437 194.157C207.437 194.598 207.499 194.979 207.621 195.3C207.747 195.619 207.928 195.866 208.163 196.041C208.402 196.214 208.695 196.3 209.043 196.3ZM214.417 198V190.364H216.471V191.696H216.55C216.689 191.222 216.923 190.864 217.251 190.622C217.579 190.377 217.957 190.254 218.385 190.254C218.491 190.254 218.605 190.261 218.728 190.274C218.85 190.287 218.958 190.306 219.051 190.329V192.208C218.952 192.178 218.814 192.152 218.638 192.129C218.463 192.105 218.302 192.094 218.156 192.094C217.845 192.094 217.566 192.162 217.321 192.298C217.079 192.43 216.887 192.616 216.744 192.854C216.605 193.093 216.535 193.368 216.535 193.68V198H214.417ZM223.271 198.149C222.485 198.149 221.809 197.99 221.242 197.672C220.679 197.35 220.245 196.896 219.94 196.31C219.635 195.72 219.482 195.022 219.482 194.217C219.482 193.431 219.635 192.742 219.94 192.148C220.245 191.555 220.674 191.093 221.227 190.761C221.784 190.43 222.437 190.264 223.186 190.264C223.69 190.264 224.159 190.345 224.593 190.508C225.031 190.667 225.412 190.907 225.737 191.229C226.065 191.55 226.32 191.955 226.502 192.442C226.684 192.926 226.776 193.492 226.776 194.142V194.724H220.327V193.411H224.782C224.782 193.106 224.716 192.836 224.583 192.601C224.451 192.366 224.267 192.182 224.031 192.049C223.799 191.913 223.529 191.845 223.221 191.845C222.899 191.845 222.614 191.92 222.366 192.069C222.121 192.215 221.928 192.412 221.789 192.661C221.65 192.906 221.579 193.179 221.575 193.481V194.729C221.575 195.107 221.645 195.433 221.784 195.708C221.927 195.983 222.127 196.195 222.386 196.344C222.644 196.494 222.951 196.568 223.305 196.568C223.541 196.568 223.756 196.535 223.952 196.469C224.147 196.402 224.315 196.303 224.454 196.17C224.593 196.038 224.699 195.875 224.772 195.683L226.731 195.812C226.631 196.283 226.428 196.694 226.119 197.045C225.814 197.393 225.42 197.665 224.936 197.861C224.455 198.053 223.9 198.149 223.271 198.149ZM229.26 200.864C228.992 200.864 228.74 200.842 228.504 200.799C228.272 200.759 228.08 200.708 227.928 200.645L228.405 199.064C228.654 199.14 228.877 199.182 229.076 199.188C229.278 199.195 229.452 199.148 229.598 199.049C229.747 198.95 229.868 198.781 229.961 198.542L230.085 198.219L227.346 190.364H229.573L231.154 195.972H231.234L232.83 190.364H235.072L232.104 198.825C231.961 199.236 231.767 199.594 231.522 199.899C231.28 200.207 230.974 200.444 230.602 200.61C230.231 200.779 229.784 200.864 229.26 200.864Z" fill="#B8B8B8"/>
<path d="M0.884943 406V395.818H4.90199C5.67093 395.818 6.32718 395.956 6.87074 396.231C7.41761 396.503 7.83357 396.889 8.11861 397.389C8.40696 397.886 8.55114 398.471 8.55114 399.144C8.55114 399.82 8.4053 400.402 8.11364 400.889C7.82197 401.373 7.39938 401.744 6.84588 402.003C6.29569 402.261 5.6295 402.391 4.8473 402.391H2.15767V400.661H4.49929C4.91027 400.661 5.25166 400.604 5.52344 400.491C5.79522 400.379 5.9974 400.21 6.12997 399.984C6.26586 399.759 6.33381 399.479 6.33381 399.144C6.33381 398.806 6.26586 398.521 6.12997 398.289C5.9974 398.057 5.79356 397.881 5.51847 397.762C5.24669 397.639 4.90365 397.578 4.48935 397.578H3.03764V406H0.884943ZM6.38352 401.366L8.91406 406H6.53764L4.06179 401.366H6.38352ZM13.3897 406.149C12.6042 406.149 11.9281 405.99 11.3613 405.672C10.7979 405.35 10.3637 404.896 10.0588 404.31C9.75385 403.72 9.60138 403.022 9.60138 402.217C9.60138 401.431 9.75385 400.742 10.0588 400.148C10.3637 399.555 10.7929 399.093 11.3464 398.761C11.9032 398.43 12.5562 398.264 13.3052 398.264C13.809 398.264 14.278 398.345 14.7122 398.508C15.1497 398.667 15.5308 398.907 15.8556 399.229C16.1838 399.55 16.439 399.955 16.6213 400.442C16.8036 400.926 16.8947 401.492 16.8947 402.142V402.724H10.4466V401.411H14.9011C14.9011 401.106 14.8348 400.836 14.7022 400.601C14.5697 400.366 14.3857 400.182 14.1504 400.049C13.9184 399.913 13.6483 399.845 13.34 399.845C13.0185 399.845 12.7335 399.92 12.4849 400.069C12.2396 400.215 12.0474 400.412 11.9082 400.661C11.769 400.906 11.6977 401.179 11.6944 401.481V402.729C11.6944 403.107 11.764 403.433 11.9032 403.708C12.0458 403.983 12.2463 404.195 12.5048 404.344C12.7633 404.494 13.0699 404.568 13.4245 404.568C13.6599 404.568 13.8753 404.535 14.0708 404.469C14.2664 404.402 14.4338 404.303 14.573 404.17C14.7122 404.038 14.8182 403.875 14.8912 403.683L16.85 403.812C16.7505 404.283 16.5467 404.694 16.2385 405.045C15.9335 405.393 15.5391 405.665 15.0552 405.861C14.5746 406.053 14.0195 406.149 13.3897 406.149ZM21.0907 406.124C20.5107 406.124 19.9854 405.975 19.5147 405.677C19.0474 405.375 18.6762 404.933 18.4011 404.349C18.1293 403.763 17.9934 403.044 17.9934 402.192C17.9934 401.317 18.1343 400.589 18.416 400.009C18.6977 399.426 19.0723 398.99 19.5396 398.702C20.0102 398.41 20.5256 398.264 21.0858 398.264C21.5133 398.264 21.8696 398.337 22.1547 398.483C22.443 398.625 22.675 398.804 22.8507 399.02C23.0297 399.232 23.1655 399.441 23.2583 399.646H23.323V395.818H25.4359V406H23.3478V404.777H23.2583C23.1589 404.989 23.0181 405.2 22.8358 405.408C22.6568 405.614 22.4231 405.785 22.1348 405.92C21.8497 406.056 21.5017 406.124 21.0907 406.124ZM21.7619 404.439C22.1033 404.439 22.3916 404.346 22.627 404.161C22.8656 403.972 23.0479 403.708 23.1738 403.37C23.3031 403.032 23.3677 402.636 23.3677 402.182C23.3677 401.728 23.3047 401.333 23.1788 400.999C23.0529 400.664 22.8706 400.405 22.6319 400.223C22.3933 400.041 22.1033 399.95 21.7619 399.95C21.4139 399.95 21.1206 400.044 20.8819 400.233C20.6433 400.422 20.4627 400.684 20.34 401.018C20.2174 401.353 20.1561 401.741 20.1561 402.182C20.1561 402.626 20.2174 403.019 20.34 403.36C20.466 403.698 20.6466 403.963 20.8819 404.156C21.1206 404.344 21.4139 404.439 21.7619 404.439Z" fill="#B8B8B8"/>
<path d="M174.636 399.109C174.567 398.867 174.469 398.654 174.343 398.468C174.217 398.279 174.063 398.12 173.881 397.991C173.702 397.858 173.496 397.757 173.264 397.688C173.036 397.618 172.782 397.583 172.504 397.583C171.983 397.583 171.526 397.712 171.131 397.971C170.74 398.229 170.435 398.606 170.217 399.099C169.998 399.59 169.888 400.19 169.888 400.899C169.888 401.608 169.996 402.212 170.212 402.709C170.427 403.206 170.732 403.585 171.126 403.847C171.521 404.106 171.987 404.235 172.523 404.235C173.011 404.235 173.427 404.149 173.771 403.977C174.119 403.801 174.384 403.554 174.567 403.236C174.752 402.918 174.845 402.541 174.845 402.107L175.283 402.172H172.658V400.551H176.918V401.834C176.918 402.729 176.729 403.498 176.352 404.141C175.974 404.78 175.453 405.274 174.79 405.622C174.128 405.967 173.369 406.139 172.513 406.139C171.559 406.139 170.72 405.929 169.998 405.508C169.275 405.084 168.712 404.482 168.308 403.703C167.906 402.921 167.706 401.993 167.706 400.919C167.706 400.094 167.825 399.358 168.064 398.712C168.306 398.062 168.644 397.512 169.078 397.061C169.512 396.61 170.018 396.267 170.594 396.032C171.171 395.797 171.796 395.679 172.469 395.679C173.045 395.679 173.582 395.763 174.08 395.933C174.577 396.098 175.018 396.334 175.402 396.638C175.79 396.943 176.106 397.306 176.352 397.727C176.597 398.145 176.754 398.606 176.824 399.109H174.636ZM178.496 406V398.364H180.549V399.696H180.628C180.768 399.222 181.001 398.864 181.329 398.622C181.657 398.377 182.035 398.254 182.463 398.254C182.569 398.254 182.683 398.261 182.806 398.274C182.929 398.287 183.036 398.306 183.129 398.329V400.208C183.03 400.178 182.892 400.152 182.716 400.129C182.541 400.105 182.38 400.094 182.234 400.094C181.923 400.094 181.644 400.162 181.399 400.298C181.157 400.43 180.965 400.616 180.822 400.854C180.683 401.093 180.613 401.368 180.613 401.68V406H178.496ZM187.349 406.149C186.563 406.149 185.887 405.99 185.32 405.672C184.757 405.35 184.323 404.896 184.018 404.31C183.713 403.72 183.56 403.022 183.56 402.217C183.56 401.431 183.713 400.742 184.018 400.148C184.323 399.555 184.752 399.093 185.305 398.761C185.862 398.43 186.515 398.264 187.264 398.264C187.768 398.264 188.237 398.345 188.671 398.508C189.109 398.667 189.49 398.907 189.815 399.229C190.143 399.55 190.398 399.955 190.58 400.442C190.763 400.926 190.854 401.492 190.854 402.142V402.724H184.406V401.411H188.86C188.86 401.106 188.794 400.836 188.661 400.601C188.529 400.366 188.345 400.182 188.109 400.049C187.877 399.913 187.607 399.845 187.299 399.845C186.978 399.845 186.692 399.92 186.444 400.069C186.199 400.215 186.006 400.412 185.867 400.661C185.728 400.906 185.657 401.179 185.653 401.481V402.729C185.653 403.107 185.723 403.433 185.862 403.708C186.005 403.983 186.205 404.195 186.464 404.344C186.722 404.494 187.029 404.568 187.384 404.568C187.619 404.568 187.834 404.535 188.03 404.469C188.225 404.402 188.393 404.303 188.532 404.17C188.671 404.038 188.777 403.875 188.85 403.683L190.809 403.812C190.71 404.283 190.506 404.694 190.197 405.045C189.893 405.393 189.498 405.665 189.014 405.861C188.534 406.053 187.978 406.149 187.349 406.149ZM195.716 406.149C194.93 406.149 194.254 405.99 193.688 405.672C193.124 405.35 192.69 404.896 192.385 404.31C192.08 403.72 191.928 403.022 191.928 402.217C191.928 401.431 192.08 400.742 192.385 400.148C192.69 399.555 193.119 399.093 193.673 398.761C194.229 398.43 194.882 398.264 195.631 398.264C196.135 398.264 196.604 398.345 197.038 398.508C197.476 398.667 197.857 398.907 198.182 399.229C198.51 399.55 198.765 399.955 198.947 400.442C199.13 400.926 199.221 401.492 199.221 402.142V402.724H192.773V401.411H197.227C197.227 401.106 197.161 400.836 197.028 400.601C196.896 400.366 196.712 400.182 196.477 400.049C196.245 399.913 195.974 399.845 195.666 399.845C195.345 399.845 195.06 399.92 194.811 400.069C194.566 400.215 194.374 400.412 194.234 400.661C194.095 400.906 194.024 401.179 194.021 401.481V402.729C194.021 403.107 194.09 403.433 194.229 403.708C194.372 403.983 194.572 404.195 194.831 404.344C195.089 404.494 195.396 404.568 195.751 404.568C195.986 404.568 196.201 404.535 196.397 404.469C196.593 404.402 196.76 404.303 196.899 404.17C197.038 404.038 197.144 403.875 197.217 403.683L199.176 403.812C199.077 404.283 198.873 404.694 198.565 405.045C198.26 405.393 197.865 405.665 197.381 405.861C196.901 406.053 196.346 406.149 195.716 406.149ZM202.721 401.585V406H200.603V398.364H202.621V399.711H202.711C202.88 399.267 203.163 398.915 203.561 398.657C203.959 398.395 204.441 398.264 205.008 398.264C205.538 398.264 206 398.38 206.395 398.612C206.789 398.844 207.096 399.176 207.315 399.607C207.533 400.034 207.643 400.545 207.643 401.138V406H205.525V401.516C205.528 401.048 205.409 400.684 205.167 400.422C204.925 400.157 204.592 400.024 204.168 400.024C203.883 400.024 203.631 400.085 203.412 400.208C203.196 400.331 203.027 400.51 202.905 400.745C202.786 400.977 202.724 401.257 202.721 401.585Z" fill="#B8B8B8"/>
<path d="M323.684 33.348C323.581 32.3168 323.143 31.5156 322.367 30.9446C321.591 30.3736 320.539 30.0881 319.209 30.0881C318.306 30.0881 317.543 30.2159 316.921 30.4716C316.299 30.7188 315.822 31.0639 315.489 31.5071C315.165 31.9503 315.003 32.4531 315.003 33.0156C314.986 33.4844 315.084 33.8935 315.297 34.2429C315.519 34.5923 315.822 34.8949 316.205 35.1506C316.589 35.3977 317.032 35.6151 317.535 35.8026C318.037 35.9815 318.574 36.1349 319.145 36.2628L321.498 36.8253C322.64 37.081 323.688 37.4219 324.643 37.848C325.597 38.2741 326.424 38.7983 327.123 39.4205C327.822 40.0426 328.363 40.7756 328.746 41.6193C329.138 42.4631 329.339 43.4304 329.347 44.5213C329.339 46.1236 328.93 47.5128 328.12 48.6889C327.319 49.8565 326.16 50.7642 324.643 51.4119C323.134 52.0511 321.314 52.3707 319.184 52.3707C317.07 52.3707 315.229 52.0469 313.661 51.3991C312.101 50.7514 310.883 49.7926 310.005 48.5227C309.135 47.2443 308.68 45.6634 308.637 43.7798H313.993C314.053 44.6577 314.305 45.3906 314.748 45.9787C315.199 46.5582 315.8 46.9972 316.55 47.2955C317.309 47.5852 318.165 47.7301 319.12 47.7301C320.057 47.7301 320.871 47.5937 321.562 47.321C322.26 47.0483 322.802 46.669 323.185 46.1832C323.569 45.6974 323.76 45.1392 323.76 44.5085C323.76 43.9205 323.586 43.4261 323.236 43.0256C322.895 42.625 322.393 42.2841 321.728 42.0028C321.072 41.7216 320.266 41.4659 319.312 41.2358L316.461 40.5199C314.253 39.983 312.51 39.1435 311.232 38.0014C309.954 36.8594 309.319 35.321 309.327 33.3864C309.319 31.8011 309.741 30.4162 310.593 29.2315C311.454 28.0469 312.634 27.1222 314.134 26.4574C315.634 25.7926 317.339 25.4602 319.248 25.4602C321.191 25.4602 322.887 25.7926 324.336 26.4574C325.793 27.1222 326.927 28.0469 327.736 29.2315C328.546 30.4162 328.964 31.7884 328.989 33.348H323.684ZM306.699 85.8182H312.899L318.869 97.0938H319.125L325.095 85.8182H331.295L321.745 102.744V112H316.248V102.744L306.699 85.8182ZM323.684 153.348C323.581 152.317 323.143 151.516 322.367 150.945C321.591 150.374 320.539 150.088 319.209 150.088C318.306 150.088 317.543 150.216 316.921 150.472C316.299 150.719 315.822 151.064 315.489 151.507C315.165 151.95 315.003 152.453 315.003 153.016C314.986 153.484 315.084 153.893 315.297 154.243C315.519 154.592 315.822 154.895 316.205 155.151C316.589 155.398 317.032 155.615 317.535 155.803C318.037 155.982 318.574 156.135 319.145 156.263L321.498 156.825C322.64 157.081 323.688 157.422 324.643 157.848C325.597 158.274 326.424 158.798 327.123 159.42C327.822 160.043 328.363 160.776 328.746 161.619C329.138 162.463 329.339 163.43 329.347 164.521C329.339 166.124 328.93 167.513 328.12 168.689C327.319 169.857 326.16 170.764 324.643 171.412C323.134 172.051 321.314 172.371 319.184 172.371C317.07 172.371 315.229 172.047 313.661 171.399C312.101 170.751 310.883 169.793 310.005 168.523C309.135 167.244 308.68 165.663 308.637 163.78H313.993C314.053 164.658 314.305 165.391 314.748 165.979C315.199 166.558 315.8 166.997 316.55 167.295C317.309 167.585 318.165 167.73 319.12 167.73C320.057 167.73 320.871 167.594 321.562 167.321C322.26 167.048 322.802 166.669 323.185 166.183C323.569 165.697 323.76 165.139 323.76 164.509C323.76 163.92 323.586 163.426 323.236 163.026C322.895 162.625 322.393 162.284 321.728 162.003C321.072 161.722 320.266 161.466 319.312 161.236L316.461 160.52C314.253 159.983 312.51 159.143 311.232 158.001C309.954 156.859 309.319 155.321 309.327 153.386C309.319 151.801 309.741 150.416 310.593 149.232C311.454 148.047 312.634 147.122 314.134 146.457C315.634 145.793 317.339 145.46 319.248 145.46C321.191 145.46 322.887 145.793 324.336 146.457C325.793 147.122 326.927 148.047 327.736 149.232C328.546 150.416 328.964 151.788 328.989 153.348H323.684ZM318.199 232H308.918V205.818H318.276C320.91 205.818 323.177 206.342 325.077 207.391C326.978 208.43 328.439 209.926 329.462 211.878C330.493 213.83 331.009 216.165 331.009 218.884C331.009 221.611 330.493 223.955 329.462 225.915C328.439 227.875 326.969 229.379 325.052 230.428C323.143 231.476 320.858 232 318.199 232ZM314.454 227.257H317.969C319.606 227.257 320.982 226.967 322.099 226.388C323.224 225.8 324.067 224.892 324.63 223.665C325.201 222.429 325.486 220.835 325.486 218.884C325.486 216.949 325.201 215.368 324.63 214.141C324.067 212.913 323.228 212.01 322.111 211.43C320.995 210.851 319.618 210.561 317.982 210.561H314.454V227.257ZM312.324 292H306.392L315.43 265.818H322.564L331.589 292H325.657L319.099 271.801H318.895L312.324 292ZM311.953 281.709H325.964V286.03H311.953V281.709ZM309.463 352V325.818H319.793C321.77 325.818 323.457 326.172 324.855 326.879C326.261 327.578 327.331 328.571 328.064 329.858C328.805 331.136 329.176 332.641 329.176 334.371C329.176 336.109 328.801 337.605 328.051 338.858C327.301 340.102 326.214 341.057 324.791 341.722C323.376 342.386 321.663 342.719 319.652 342.719H312.736V338.27H318.757C319.814 338.27 320.692 338.125 321.391 337.835C322.089 337.545 322.609 337.111 322.95 336.531C323.3 335.952 323.474 335.232 323.474 334.371C323.474 333.501 323.3 332.768 322.95 332.172C322.609 331.575 322.085 331.124 321.378 330.817C320.679 330.501 319.797 330.344 318.732 330.344H314.999V352H309.463ZM323.602 340.085L330.109 352H323.999L317.632 340.085H323.602ZM308.865 412V385.818H314.401V397.362H314.746L324.168 385.818H330.803L321.087 397.541L330.918 412H324.296L317.124 401.236L314.401 404.56V412H308.865Z" fill="black" fill-opacity="0.28"/>
</svg>
